<mxfile host="app.diagrams.net" agent="Mozilla/5.0 (Windows NT 10.0; Win64; x64) AppleWebKit/537.36 (KHTML, like Gecko) Chrome/136.0.0.0 Safari/537.36" version="27.0.9">
  <diagram name="Page-1" id="vF25vYbL1xCyj2fkvmNd">
    <mxGraphModel dx="5992" dy="4057" grid="1" gridSize="10" guides="1" tooltips="1" connect="1" arrows="1" fold="1" page="1" pageScale="1" pageWidth="827" pageHeight="1169" math="0" shadow="0">
      <root>
        <mxCell id="0" />
        <mxCell id="1" parent="0" />
        <mxCell id="ziOlibhgftZ5cGuLVJRU-2" value="" style="rounded=0;whiteSpace=wrap;html=1;strokeColor=none;fillColor=#000000;imageWidth=100;rotation=0;" parent="1" vertex="1">
          <mxGeometry y="1100" width="3000" height="100" as="geometry" />
        </mxCell>
        <mxCell id="ziOlibhgftZ5cGuLVJRU-3" value="" style="rounded=0;whiteSpace=wrap;html=1;fillColor=#116007;strokeColor=none;rotation=0;" parent="1" vertex="1">
          <mxGeometry x="10" y="1110" width="2980" height="80" as="geometry" />
        </mxCell>
        <mxCell id="hyLW6nLZtwggyFe4hAs1-1" value="" style="rounded=0;whiteSpace=wrap;html=1;strokeColor=none;fillColor=#000000;imageWidth=100;rotation=0;" vertex="1" parent="1">
          <mxGeometry x="-10" y="790" width="270" height="60" as="geometry" />
        </mxCell>
        <mxCell id="hyLW6nLZtwggyFe4hAs1-2" value="" style="rounded=0;whiteSpace=wrap;html=1;fillColor=#27605E;strokeColor=none;rotation=0;" vertex="1" parent="1">
          <mxGeometry y="800" width="250" height="40" as="geometry" />
        </mxCell>
        <mxCell id="hyLW6nLZtwggyFe4hAs1-5" value="" style="rounded=0;whiteSpace=wrap;html=1;strokeColor=none;fillColor=#000000;imageWidth=100;rotation=0;" vertex="1" parent="1">
          <mxGeometry x="400" y="520" width="270" height="60" as="geometry" />
        </mxCell>
        <mxCell id="hyLW6nLZtwggyFe4hAs1-6" value="" style="rounded=0;whiteSpace=wrap;html=1;fillColor=#27605E;strokeColor=none;rotation=0;" vertex="1" parent="1">
          <mxGeometry x="410" y="530" width="250" height="40" as="geometry" />
        </mxCell>
        <mxCell id="hyLW6nLZtwggyFe4hAs1-7" value="" style="rounded=0;whiteSpace=wrap;html=1;strokeColor=none;fillColor=#000000;imageWidth=100;rotation=0;" vertex="1" parent="1">
          <mxGeometry x="827" y="220" width="270" height="60" as="geometry" />
        </mxCell>
        <mxCell id="hyLW6nLZtwggyFe4hAs1-8" value="" style="rounded=0;whiteSpace=wrap;html=1;fillColor=#27605E;strokeColor=none;rotation=0;" vertex="1" parent="1">
          <mxGeometry x="837" y="230" width="250" height="40" as="geometry" />
        </mxCell>
        <mxCell id="hyLW6nLZtwggyFe4hAs1-9" value="" style="rounded=0;whiteSpace=wrap;html=1;strokeColor=none;fillColor=#000000;imageWidth=100;rotation=0;" vertex="1" parent="1">
          <mxGeometry x="510" y="-150" width="60" height="286" as="geometry" />
        </mxCell>
        <mxCell id="hyLW6nLZtwggyFe4hAs1-10" value="" style="rounded=0;whiteSpace=wrap;html=1;fillColor=#27605E;strokeColor=none;rotation=0;" vertex="1" parent="1">
          <mxGeometry x="520" y="-140" width="40" height="266" as="geometry" />
        </mxCell>
        <mxCell id="hyLW6nLZtwggyFe4hAs1-11" value="" style="rounded=0;whiteSpace=wrap;html=1;strokeColor=none;fillColor=#000000;imageWidth=100;rotation=0;" vertex="1" parent="1">
          <mxGeometry x="870" y="-350" width="60" height="286" as="geometry" />
        </mxCell>
        <mxCell id="hyLW6nLZtwggyFe4hAs1-12" value="" style="rounded=0;whiteSpace=wrap;html=1;fillColor=#27605E;strokeColor=none;rotation=0;" vertex="1" parent="1">
          <mxGeometry x="880" y="-340" width="40" height="266" as="geometry" />
        </mxCell>
        <mxCell id="hyLW6nLZtwggyFe4hAs1-13" value="" style="rounded=0;whiteSpace=wrap;html=1;strokeColor=none;fillColor=#000000;imageWidth=100;rotation=0;" vertex="1" parent="1">
          <mxGeometry x="1670" y="680" width="60" height="286" as="geometry" />
        </mxCell>
        <mxCell id="hyLW6nLZtwggyFe4hAs1-14" value="" style="rounded=0;whiteSpace=wrap;html=1;fillColor=#27605E;strokeColor=none;rotation=0;" vertex="1" parent="1">
          <mxGeometry x="1680" y="690" width="40" height="266" as="geometry" />
        </mxCell>
        <mxCell id="hyLW6nLZtwggyFe4hAs1-15" value="" style="rounded=0;whiteSpace=wrap;html=1;strokeColor=none;fillColor=#000000;imageWidth=100;rotation=0;" vertex="1" parent="1">
          <mxGeometry x="1950" y="320" width="60" height="286" as="geometry" />
        </mxCell>
        <mxCell id="hyLW6nLZtwggyFe4hAs1-16" value="" style="rounded=0;whiteSpace=wrap;html=1;fillColor=#27605E;strokeColor=none;rotation=0;" vertex="1" parent="1">
          <mxGeometry x="1960" y="330" width="40" height="266" as="geometry" />
        </mxCell>
        <mxCell id="hyLW6nLZtwggyFe4hAs1-17" value="" style="rounded=0;whiteSpace=wrap;html=1;strokeColor=none;fillColor=#000000;imageWidth=100;rotation=0;" vertex="1" parent="1">
          <mxGeometry x="1654" y="-90" width="60" height="286" as="geometry" />
        </mxCell>
        <mxCell id="hyLW6nLZtwggyFe4hAs1-18" value="" style="rounded=0;whiteSpace=wrap;html=1;fillColor=#27605E;strokeColor=none;rotation=0;" vertex="1" parent="1">
          <mxGeometry x="1664" y="-80" width="40" height="266" as="geometry" />
        </mxCell>
        <mxCell id="hyLW6nLZtwggyFe4hAs1-20" value="" style="rounded=0;whiteSpace=wrap;html=1;strokeColor=none;fillColor=#000000;imageWidth=100;rotation=0;" vertex="1" parent="1">
          <mxGeometry x="1950" y="-500" width="60" height="286" as="geometry" />
        </mxCell>
        <mxCell id="hyLW6nLZtwggyFe4hAs1-21" value="" style="rounded=0;whiteSpace=wrap;html=1;fillColor=#27605E;strokeColor=none;rotation=0;" vertex="1" parent="1">
          <mxGeometry x="1960" y="-490" width="40" height="266" as="geometry" />
        </mxCell>
      </root>
    </mxGraphModel>
  </diagram>
</mxfile>
